<svg width="1920" height="963"  fill="none" xmlns="http://www.w3.org/2000/svg">
<path d="M-2 82.6974V590.39C36.1243 590.548 114.111 590.712 152 590.879V833.078C226.138 843.058 285.695 868.099 345.067 893.062L345.069 893.063C438.526 932.358 531.526 971.461 680.214 951.326C759.01 940.659 800.938 920.465 846.481 898.529C898.736 873.362 955.75 845.902 1078.67 827.91C1116.45 822.383 1123.41 804.708 1129.61 788.957C1137.63 768.576 1144.38 751.418 1215 767.968V833.078C1289.14 843.058 1348.69 868.099 1408.07 893.062C1467.44 918.026 1408.07 893.063 1408.07 893.063C1501.53 932.358 1614.68 985.378 1743 951.326C1804.67 934.962 1843.72 900.465 1889.27 878.529L1919.48 128.171C1815.58 126.649 1730.61 95.1276 1655.93 63.7295C1565.66 25.7724 1475.81 -12.0049 1335.78 3.6135C1254.55 6.70115 1198.36 31.8466 1138.13 58.8042L1138.13 58.8047C1078.72 85.3904 1015.38 113.739 920.194 124.428C775.844 140.636 684.17 102.091 592.932 63.7295C499.475 24.4345 406.475 -14.6677 257.787 5.46628C178.991 16.1338 137.063 36.3278 91.5197 58.2631L91.5178 58.2639L91.5168 58.2643C74.8275 66.3025 17.6526 74.5745 -2 82.6974Z" fill="#FFC8BB"/>
<path d="M0 66.5066V897.926C61.3889 932.56 122.448 940.277 147.63 943.18C247.912 954.726 305.782 923.849 368.961 890.139C418.789 863.553 471.92 835.205 551.764 824.516C672.844 808.307 749.74 846.852 826.27 885.214C904.661 924.509 982.669 963.611 1107.39 943.477C1173.48 932.81 1208.65 912.616 1246.85 890.68C1290.68 865.513 1338.51 838.053 1441.61 820.06L1441.63 820.056C1518.65 806.626 1643.94 784.776 1777.5 829.815C1816.88 843.095 1846.74 856.284 1869.15 866.183C1894.86 877.536 1910.77 884.563 1920 882.438V51.0187C1858.61 16.3841 1797.55 8.66732 1772.37 5.76405C1672.09 -5.78164 1614.22 25.0951 1551.04 58.8049C1501.21 85.391 1448.08 113.739 1368.24 124.429C1247.16 140.637 1170.26 102.092 1093.73 63.7303C1015.34 24.4354 937.331 -14.6671 812.612 5.46704C746.519 16.1345 711.35 36.3286 673.149 58.2639C629.318 83.4318 581.495 110.892 478.39 128.884L478.368 128.888C401.352 142.319 276.06 164.168 142.499 119.129C103.122 105.849 73.2616 92.6607 50.8489 82.7616C25.1431 71.4081 9.23408 64.3815 0 66.5066Z" fill="url(#paint0_linear_910_632)"/>
<defs>
<linearGradient id="paint0_linear_910_632" x1="2332.5" y1="415" x2="60.4974" y2="372.135" gradientUnits="userSpaceOnUse">
<stop stop-color="#1B2754"/>
<stop offset="1" stop-color="#F15735"/>
</linearGradient>
</defs>
</svg>
