<svg width="116" height="36" viewBox="0 0 116 36" fill="none" xmlns="http://www.w3.org/2000/svg">
<rect width="116" height="36" rx="18" transform="matrix(1 0 0 -1 0 36)" fill="#FF552E"/>
<path d="M57.2724 24L57.2574 17.7L54.1674 22.89H53.0724L49.9974 17.835V24H47.7174V13.5H49.7274L53.6574 20.025L57.5274 13.5H59.5224L59.5524 24H57.2724ZM70.0836 22.05V24H61.9536V13.5H69.8886V15.45H64.3686V17.73H69.2436V19.62H64.3686V22.05H70.0836ZM81.5571 13.5V24H79.5621L74.3271 17.625V24H71.9271V13.5H73.9371L79.1571 19.875V13.5H81.5571ZM88.6163 24.18C87.1163 24.18 85.9463 23.765 85.1063 22.935C84.2763 22.105 83.8613 20.92 83.8613 19.38V13.5H86.2913V19.29C86.2913 21.17 87.0713 22.11 88.6313 22.11C89.3913 22.11 89.9713 21.885 90.3713 21.435C90.7713 20.975 90.9713 20.26 90.9713 19.29V13.5H93.3713V19.38C93.3713 20.92 92.9513 22.105 92.1113 22.935C91.2813 23.765 90.1163 24.18 88.6163 24.18Z" fill="white"/>
<path d="M21 13H36M21 24H36H21ZM21 18.5H36H21Z" stroke="white" stroke-width="1.8" stroke-linecap="round" stroke-linejoin="round"/>
</svg>
